<?xml version="1.0" standalone="no"?><!DOCTYPE svg PUBLIC "-//W3C//DTD SVG 1.1//EN" "http://www.w3.org/Graphics/SVG/1.1/DTD/svg11.dtd"><svg t="1610521750117" class="icon" viewBox="0 0 1170 1024" version="1.1" xmlns="http://www.w3.org/2000/svg" p-id="11788" xmlns:xlink="http://www.w3.org/1999/xlink" width="228.515625" height="200"><defs><style type="text/css"></style></defs><path d="M585.143 977.774A466.213 466.213 0 0 1 119.369 512c0-9.947 0.585-19.895 1.17-29.842l81.92 5.266c-0.585 8.192-0.585 16.384-0.585 24.576a384.073 384.073 0 0 0 383.854 383.854 381.22 381.22 0 0 0 263.9-105.326l56.173 59.685a463.799 463.799 0 0 1-320.658 127.56zM1050.917 512h-81.92c0-13.458-0.586-26.917-2.341-40.375a382.537 382.537 0 0 0-382.098-343.479 383.634 383.634 0 0 0-214.748 65.536l-45.056-67.876a461.531 461.531 0 0 1 260.389-79.58A464.31 464.31 0 0 1 1050.917 512z" fill="#515151" p-id="11789"></path><path d="M160.33 259.218L32.182 488.594c-3.511 5.852 1.17 13.459 7.607 13.459h255.707c7.022 0 11.118-7.022 7.607-13.459L175.543 259.218c-3.511-6.436-12.288-6.436-15.214 0z m834.413 440.028L866.597 469.87c-3.511-5.852 1.17-13.459 7.606-13.459h255.708c7.022 0 11.118 7.022 7.607 13.459l-127.561 229.376c-2.926 5.851-11.703 5.851-15.214 0zM308.955 157.989a40.96 40.96 0 1 0 81.92 0 40.96 40.96 0 0 0-81.92 0zM832.658 823.88a40.96 40.96 0 1 0 81.92 0 40.96 40.96 0 0 0-81.92 0z" fill="#515151" p-id="11790"></path></svg>