<?xml version="1.0" standalone="no"?><!DOCTYPE svg PUBLIC "-//W3C//DTD SVG 1.1//EN" "http://www.w3.org/Graphics/SVG/1.1/DTD/svg11.dtd"><svg t="1611026392714" class="icon" viewBox="0 0 1024 1024" version="1.1" xmlns="http://www.w3.org/2000/svg" p-id="5082" xmlns:xlink="http://www.w3.org/1999/xlink" width="200" height="200"><defs><style type="text/css"></style></defs><path d="M399.36 721.92c-10.24 10.24-10.24 20.48 0 30.72 10.24 10.24 20.48 10.24 30.72 0l199.68-199.68c10.24-10.24 10.24-20.48 0-30.72-10.24-10.24-20.48-10.24-30.72 0L399.36 721.92z" fill="#999999" p-id="5083"></path><path d="M599.04 547.84c10.24 10.24 20.48 10.24 30.72 0 10.24-10.24 10.24-20.48 0-30.72L430.08 317.44c-10.24-10.24-20.48-10.24-30.72 0-10.24 10.24-10.24 20.48 0 30.72l199.68 199.68z" fill="#999999" p-id="5084"></path></svg>