<?xml version="1.0" standalone="no"?><!DOCTYPE svg PUBLIC "-//W3C//DTD SVG 1.1//EN" "http://www.w3.org/Graphics/SVG/1.1/DTD/svg11.dtd"><svg t="1610518239239" class="icon" viewBox="0 0 1024 1024" version="1.1" xmlns="http://www.w3.org/2000/svg" p-id="3466" xmlns:xlink="http://www.w3.org/1999/xlink" width="200" height="200"><defs><style type="text/css"></style></defs><path d="M999.862857 473.234286L511.268571 18.285714a55.881143 55.881143 0 0 0-74.605714 0c-10.24 9.508571-15.36 21.942857-15.36 35.108572s5.851429 25.6 15.36 35.108571L891.611429 512l-454.948572 423.497143c-10.24 9.508571-15.36 21.942857-15.36 35.108571s5.851429 25.6 15.36 35.108572c20.48 19.017143 54.125714 19.017143 74.605714 0l488.594286-454.948572c11.702857-10.24 16.091429-24.137143 15.36-38.034285 0.731429-15.36-4.388571-29.257143-15.36-39.497143" fill="#B0B0B0" p-id="3467"></path><path d="M615.131429 511.268571a47.542857 47.542857 0 0 0-14.628572-38.034285L111.908571 18.285714A56.905143 56.905143 0 0 0 36.571429 18.285714C27.062857 27.794286 21.211429 40.228571 21.211429 53.394286s5.851429 25.6 15.36 35.108571L491.52 512 36.571429 934.765714c-10.24 9.508571-15.36 21.942857-15.36 35.108572s5.851429 25.6 15.36 35.108571c21.211429 19.017143 54.125714 19.017143 75.337142 0l488.594286-454.948571c10.24-10.971429 16.091429-24.868571 14.628572-38.765715" fill="#B0B0B0" p-id="3468"></path></svg>