<?xml version="1.0" standalone="no"?><!DOCTYPE svg PUBLIC "-//W3C//DTD SVG 1.1//EN" "http://www.w3.org/Graphics/SVG/1.1/DTD/svg11.dtd"><svg t="1610517782178" class="icon" viewBox="0 0 1024 1024" version="1.1" xmlns="http://www.w3.org/2000/svg" p-id="2642" xmlns:xlink="http://www.w3.org/1999/xlink" width="200" height="200"><defs><style type="text/css"></style></defs><path d="M504.1152 224.512a212.0704 212.0704 0 0 0-63.76448 10.7776c-92.5696 31.39584-168.51456 127.80544-168.51456 241.8688v89.79456s0 129.3312-32.65536 130.4576c-19.46624 0-34.3808 14.60224-34.3808 32.6144 0 18.13504 15.0016 32.6144 33.51552 32.6144h536.32c18.60096 0 33.5104-14.60224 33.5104-32.6144 0-18.14016-15.0016-32.6144-33.5104-32.6144-33.52576 0-33.52576-129.54624-33.52576-129.54624V477.16864c0-114.21184-71.00416-210.65728-168.4992-241.95584-22.71744-7.47008-45.54752-11.0336-68.49536-10.7008z" fill="#4A90E2" p-id="2643"></path><path d="M573.51168 224.512c0-35.9424-30.01344-65.22368-67.03616-65.22368-36.95104 0-67.04128 29.20448-67.04128 65.2288 0 3.66592 0.31232 7.2704 0.91648 10.77248 20.4544-3.456 42.496-5.18144 66.1248-5.18144 23.62368 0 45.6704 1.69984 66.14016 5.10464 0.59904-3.5328 0.896-7.1168 0.896-10.7008z" fill="#3478C7" p-id="2644"></path><path d="M600.09472 783.44192c-0.1024 57.472-46.2336 104.02304-104.02304 104.02304-57.39008 0-103.92064-46.3616-104.02816-104.02304h208.0512z" fill="#4A90E2" opacity=".3" p-id="2645"></path></svg>